<svg id="Layer_1" enable-background="new 0 0 512 512" height="512" viewBox="0 0 512 512" width="512" xmlns="http://www.w3.org/2000/svg"><g><path d="m437.02 195.009c-100.042-100.043-261.982-100.058-362.039 0-48.352 48.352-74.981 112.64-74.981 181.02 0 8.836 7.163 16 16 16h176c8.837 0 16-7.164 16-16 0-26.467 21.533-48 48-48s48 21.533 48 48c0 8.836 7.163 16 16 16h176c8.837 0 16-7.164 16-16 0-68.38-26.629-132.668-74.98-181.02zm-181.02-42.98c118.134 0 215.19 91.925 223.422 208h-24.063c-8.178-102.828-94.465-184-199.359-184s-191.181 81.172-199.359 184h-24.063c8.232-116.075 105.288-208 223.422-208zm167.234 208h-24.127c-7.985-71.899-69.112-128-143.106-128s-135.121 56.101-143.106 128h-24.129c8.084-85.158 79.995-152 167.234-152s159.15 66.842 167.234 152zm-167.234-64c-38.634 0-70.957 27.529-78.39 64h-32.462c7.788-54.204 54.528-96 110.852-96s103.064 41.796 110.852 96h-32.462c-7.433-36.472-39.756-64-78.39-64z"/></g></svg>