<svg id="Layer_1" enable-background="new 0 0 513 513" height="512" viewBox="0 0 513 513" width="512" xmlns="http://www.w3.org/2000/svg"><g><path d="m440.489 162.456c.91-64.644-61.191-111.943-123.37-93.457-19.101-40.448-60.072-68.999-108.619-68.999-64.682 0-117.576 51.444-119.919 115.564-50.2 10.917-88.081 55.622-88.081 109.436 0 61.757 50.243 112 112 112h312c48.523 0 88-39.477 88-88 0-43.065-31.094-79.004-72.011-86.544zm-15.989 142.544h-312c-44.112 0-80-35.888-80-80 0-41.493 32.357-76.524 73.664-79.751 8.857-.691 15.478-8.484 14.691-17.363-4.587-51.684 36.196-95.886 87.645-95.886 38.452 0 73.088 25.676 84.228 62.439 2.897 9.559 13.749 14.145 22.617 9.595 46.938-24.086 102.67 16.596 91.872 69.782-2.007 9.876 5.534 19.184 15.68 19.184 34.7 0 57.604 26.771 57.604 56-.001 30.878-25.122 56-56.001 56z"/><path d="m376.5 369h-296c-8.837 0-16 7.164-16 16s7.163 16 16 16h296c22.195 0 40 17.987 40 40 0 35.76-43.299 53.249-68.291 28.281-6.252-6.245-16.382-6.241-22.628.011-6.245 6.251-6.24 16.382.011 22.627 13.607 13.594 31.686 21.081 50.908 21.081 39.701 0 72-32.299 72-72 0-39.805-32.223-72-72-72z"/><path d="m280.5 145c-17.106 0-33.181 6.66-45.26 18.752-6.245 6.251-6.24 16.382.012 22.627 6.254 6.246 16.385 6.239 22.627-.012 6.035-6.041 14.068-9.368 22.621-9.368 28.664 0 42.575 34.697 22.621 54.632-6.035 6.042-14.068 9.369-22.621 9.369h-160c-8.837 0-16 7.164-16 16s7.163 16 16 16h160c35.355 0 64-28.6 64-64 0-35.29-28.71-64-64-64z"/><path d="m272.5 433h-144c-8.837 0-16 7.164-16 16s7.163 16 16 16h144c8.837 0 16-7.164 16-16s-7.163-16-16-16z"/><path d="m32.5 369h-16c-8.837 0-16 7.164-16 16s7.163 16 16 16h16c8.837 0 16-7.164 16-16s-7.163-16-16-16z"/></g></svg>