<svg id="Layer_1" enable-background="new 0 0 512.008 512.008" height="512" viewBox="0 0 512.008 512.008" width="512" xmlns="http://www.w3.org/2000/svg"><g><path d="m61.68 482.322c3.124 3.125 7.219 4.687 11.313 4.687 14.125 0 21.423-17.206 11.313-27.313l-12.686-12.688h144.373v49c0 8.836 7.163 16 16 16s16-7.164 16-16v-49h96.372l35.314 35.314c3.001 3 7.07 4.686 11.314 4.686h88c14.244 0 21.358-17.268 11.314-27.314l-28.687-28.686 28.687-28.686c10.068-10.069 2.894-27.314-11.314-27.314h-88c-4.244 0-8.313 1.686-11.314 4.686l-35.314 35.314h-96.372v-23.735c89.576-8.111 160-83.612 160-175.265v-18.763c21.268-12.335 36.353-34.172 39.408-59.669 28.543-12.232 48.592-40.6 48.592-73.568 0-8.836-7.164-16-16-16h-80c-44.112 0-80 35.888-80 80v48c-10.838 0-107.651 0-120 0v-40.679c22.671-3.821 40-23.58 40-47.321 0-17.384-9.54-33.136-24.024-41.557-1.163-36.344-40.859-57.982-71.976-40.003-31.661-18.294-72 4.453-72 41.56 0 7.458 1.749 14.712 4.98 21.251-12.329 12.395-20.174 29.242-20.907 47.888l-30.015 12.006c-13.376 5.351-13.384 24.357 0 29.711l29.942 11.977v45.167c0 91.653 70.424 167.154 160 175.265v23.735h-144.373l12.687-12.687c6.249-6.248 6.249-16.379 0-22.627-6.248-6.249-16.379-6.249-22.627 0-41.828 41.828-42.032 41.167-43.733 45.916-1.67 4.65-1.145 9.969 1.741 14.281 1.254 1.876-.119.321 41.992 42.431zm136.233-379.462c-10.042-40.932-53.29-64.781-93.403-50.898-4.206-16.445 16.546-26.932 27.479-14.524 6.365 7.224 17.641 7.225 24.008 0 11.081-12.576 32.037-1.629 27.382 14.977-2.486 8.852 2.996 18.015 12.029 19.964 7.292 1.574 12.585 8.147 12.585 15.63 0 6.729-4.182 12.491-10.08 14.851zm121.226 105.148c-5.841 40.654-40.901 72-83.146 72-19.851 0-36-16.149-36-36s16.149-36 36-36zm96.854-96h-61.258c6.604-18.625 24.398-32 45.258-32h61.258c-6.603 18.625-24.398 32-45.258 32zm-2.742 32c-6.604 18.625-24.398 32-45.258 32h-16v-32zm-181.258 216c-79.401 0-144-64.598-144-144 0-24.73 0-77.834 0-96 0-22.056 17.944-40 40-40s40 17.944 40 40v72c0 7.049 4.564 13.021 10.894 15.153-28.975 44.75 3.07 104.847 57.106 104.847 59.911 0 109.358-45.655 115.382-104h24.618v8c0 79.402-64.598 144-144 144zm141.628 71 24-24h42.745l-12.687 12.686c-6.248 6.249-6.248 16.379 0 22.628l12.687 12.686h-42.745z"/></g></svg>