<svg id="Layer_1" enable-background="new 0 0 512 512" height="512" viewBox="0 0 512 512" width="512" xmlns="http://www.w3.org/2000/svg"><g><path d="m394.996 218.505c-9.84-36.264-33.682-67.962-66.985-87.225-.001 0-.002-.001-.002-.001-21.81-12.613-46.71-19.279-72.009-19.279-79.402 0-144 64.598-144 144s64.598 144 144 144c94.726 0 163.72-90.372 138.996-181.495zm-250.996 37.495c0-74.799 72.238-128.711 144.044-107.323-64.011 57.422-63.998 157.236 0 214.646-71.976 21.44-144.044-32.711-144.044-107.323zm175.987 91.91c-63.843-44.597-63.946-139.151 0-183.819 64.46 45.07 63.29 139.636 0 183.819z"/><path d="m256 80c8.837 0 16-7.164 16-16v-48c0-8.836-7.163-16-16-16s-16 7.164-16 16v48c0 8.836 7.163 16 16 16z"/><path d="m256 432c-8.837 0-16 7.164-16 16v48c0 8.836 7.163 16 16 16s16-7.164 16-16v-48c0-8.836-7.163-16-16-16z"/><path d="m496 240h-48c-8.837 0-16 7.164-16 16s7.163 16 16 16h48c8.837 0 16-7.164 16-16s-7.163-16-16-16z"/><path d="m80 256c0-8.836-7.163-16-16-16h-48c-8.837 0-16 7.164-16 16s7.163 16 16 16h48c8.837 0 16-7.164 16-16z"/><path d="m391.765 136.235c4.095 0 8.189-1.563 11.313-4.686l33.941-33.941c6.249-6.249 6.249-16.379 0-22.627-6.247-6.249-16.378-6.248-22.627 0l-33.941 33.941c-10.108 10.107-2.812 27.313 11.314 27.313z"/><path d="m108.922 380.451-33.942 33.941c-6.249 6.249-6.249 16.379 0 22.627 6.246 6.248 16.377 6.249 22.627 0l33.941-33.941c6.249-6.249 6.249-16.379 0-22.627-6.246-6.248-16.377-6.247-22.626 0z"/><path d="m403.078 380.451c-6.248-6.248-16.379-6.249-22.627 0-6.249 6.248-6.249 16.379 0 22.627l33.941 33.941c3.124 3.124 7.219 4.686 11.313 4.686 14.126 0 21.422-17.206 11.313-27.314z"/><path d="m108.922 131.549c6.248 6.248 16.379 6.249 22.627 0 6.249-6.248 6.249-16.379 0-22.627l-33.942-33.942c-6.248-6.248-16.379-6.249-22.627 0-6.249 6.248-6.249 16.379 0 22.627z"/></g></svg>